<mxfile host="app.diagrams.net" modified="2024-03-23T07:50:45.893Z" agent="Mozilla/5.0 (Windows NT 10.0; Win64; x64) AppleWebKit/537.36 (KHTML, like Gecko) Chrome/113.0.0.0 Safari/537.36" version="24.0.8" etag="wUeQ_2JRW07SVA8KelmR" type="github">
  <diagram name="第 1 页" id="_g4jofzDR4-dAFSHxPp8">
    <mxGraphModel>
      <root>
        <mxCell id="0" />
        <mxCell id="1" parent="0" />
      </root>
    </mxGraphModel>
  </diagram>
</mxfile>
